<svg xmlns="http://www.w3.org/2000/svg" width="688" height="503" viewBox="0 0 688 503" fill="none"><path opacity="0.5" d="M500.14 49.7536L673.779 358.556C684.172 375.303 689.067 394.881 687.778 414.553C686.488 434.224 679.08 453.006 666.589 468.27C654.098 483.533 637.149 494.517 618.112 499.683C599.075 504.849 578.902 503.94 560.416 497.083L70.4774 339.719C51.4985 334.554 34.6069 323.602 22.1541 308.388C9.70124 293.174 2.3068 274.454 1 254.835C-0.306803 235.216 4.53911 215.673 14.8632 198.928C25.1872 182.182 40.4757 169.067 58.6004 161.407L373.638 10.6175C395.664 -0.711034 421.25 -2.95785 444.903 4.35952C468.555 11.6769 488.387 27.9748 500.14 49.7536Z" fill="#7760F9"></path></svg>