<svg xmlns="http://www.w3.org/2000/svg" width="587" height="459" viewBox="0 0 587 459" fill="none"><path opacity="0.5" d="M357.8 453.437L61.427 355.657C44.7191 350.935 29.9069 341.104 19.0623 327.54C8.21765 313.976 1.8829 297.357 0.944139 280.008C0.00536285 262.658 4.50947 245.446 13.8265 230.778C23.1435 216.111 36.8075 204.722 52.9072 198.203L465.123 9.60127C480.538 1.68962 498.032 -1.21731 515.17 1.28512C532.308 3.78756 548.237 11.5749 560.739 23.563C573.241 35.5511 581.695 51.1436 584.924 68.1699C588.153 85.1962 585.995 102.809 578.753 118.557L463.346 403.767C455.744 424.219 440.432 440.877 420.698 450.164C400.964 459.451 378.381 460.626 357.8 453.437Z" fill="#7760F9"></path></svg>