<svg xmlns="http://www.w3.org/2000/svg" width="103" height="52" viewBox="0 0 103 52" fill="none"><g clip-path="url(#clip0_1595_83139)"><path fill-rule="evenodd" clip-rule="evenodd" d="M46.2823 8.96147C48.2746 6.88557 51.0483 5.59815 54.1159 5.59815C58.1938 5.59815 61.7516 7.87204 63.6462 11.2477C65.2927 10.512 67.1151 10.1028 69.0326 10.1028C76.3876 10.1028 82.3504 16.1175 82.3504 23.5367C82.3504 30.9568 76.3876 36.9715 69.0326 36.9715C68.135 36.9715 67.2577 36.8818 66.4094 36.7102C64.7409 39.6863 61.5615 41.6971 57.9122 41.6971C56.3846 41.6971 54.9396 41.3442 53.6531 40.7168C51.9617 44.6952 48.0212 47.4848 43.4285 47.4848C38.6458 47.4848 34.5697 44.4585 33.005 40.2143C32.3213 40.3595 31.6129 40.4352 30.886 40.4352C25.1916 40.4352 20.5752 35.7712 20.5752 30.017C20.5752 26.1609 22.6493 22.794 25.7311 20.9927C25.0966 19.5328 24.7437 17.9215 24.7437 16.2275C24.7437 9.61002 30.116 4.24561 36.7423 4.24561C40.6328 4.24561 44.0902 6.09534 46.2823 8.96147ZM29.5228 26.6686C29.4908 26.7523 29.5214 26.7813 29.5399 26.7987C29.5437 26.8023 29.5471 26.8055 29.5492 26.8085C29.641 26.8753 29.734 26.9273 29.8276 26.9796C29.8524 26.9934 29.8772 27.0073 29.9021 27.0215C30.5321 27.3559 31.127 27.4535 31.7492 27.4535C33.0163 27.4535 33.8031 26.7795 33.8031 25.6944V25.6733C33.8031 24.6701 32.9151 24.3058 32.0818 24.0427L31.9736 24.0075L31.9729 24.0073C31.3449 23.8032 30.8032 23.6272 30.8032 23.2138V23.1918C30.8032 22.838 31.12 22.5775 31.611 22.5775C32.1566 22.5775 32.8043 22.7588 33.2214 22.9894C33.2214 22.9894 33.3437 23.0686 33.3886 22.9498C33.4132 22.8864 33.6244 22.3179 33.6464 22.2563C33.6702 22.1895 33.6279 22.1402 33.5848 22.1138C33.1087 21.8243 32.4505 21.6263 31.7694 21.6263L31.6427 21.6271C30.4829 21.6271 29.6733 22.3276 29.6733 23.3317V23.3528C29.6733 24.4114 30.5665 24.7546 31.4033 24.994L31.538 25.0353L31.5398 25.0359C32.1489 25.2231 32.6732 25.3842 32.6732 25.8132V25.8344C32.6732 26.2268 32.3317 26.519 31.7808 26.519C31.567 26.519 30.885 26.5146 30.1485 26.0491C30.0974 26.0193 30.0586 25.9941 30.0217 25.9702L30.0217 25.9702C29.9944 25.9525 29.9682 25.9356 29.939 25.918C29.903 25.8951 29.8123 25.8555 29.7727 25.9752L29.5228 26.6686ZM48.0909 26.7987C48.0725 26.7813 48.0418 26.7523 48.0739 26.6686L48.3238 25.9752C48.3607 25.8616 48.4681 25.903 48.491 25.918L48.5332 25.9454L48.5333 25.9454L48.5333 25.9455L48.5333 25.9455C48.5827 25.9776 48.6301 26.0085 48.6995 26.0491C49.4361 26.5146 50.1181 26.519 50.3319 26.519C50.8828 26.519 51.2251 26.2268 51.2251 25.8344V25.8132C51.2251 25.3845 50.7006 25.2233 50.092 25.0363L50.089 25.0353L49.9544 24.994C49.1175 24.7546 48.2243 24.4114 48.2243 23.3528V23.3317C48.2243 22.3276 49.0339 21.6271 50.1937 21.6271L50.3205 21.6263C51.0016 21.6263 51.6598 21.8243 52.1359 22.1138C52.179 22.1402 52.2212 22.1895 52.1975 22.2563C52.1755 22.3179 51.9643 22.8864 51.9396 22.9498C51.8948 23.0686 51.7724 22.9894 51.7724 22.9894C51.3553 22.7588 50.7077 22.5775 50.1621 22.5775C49.671 22.5775 49.3542 22.838 49.3542 23.1918V23.2138C49.3542 23.6272 49.8959 23.8032 50.524 24.0073L50.524 24.0073L50.5246 24.0075L50.6329 24.0427C51.4662 24.3058 52.3541 24.6701 52.3541 25.6733V25.6944C52.3541 26.7795 51.5674 27.4535 50.3002 27.4535C49.6781 27.4535 49.0832 27.3559 48.4531 27.0215C48.4283 27.0073 48.4035 26.9934 48.3787 26.9796C48.2851 26.9273 48.1921 26.8753 48.1003 26.8085C48.0981 26.8055 48.0948 26.8023 48.0909 26.7987ZM60.7382 24.5432C60.7382 25.1566 60.6238 25.6397 60.3985 25.9811C60.1758 26.319 59.8388 26.4836 59.3689 26.4836C58.8981 26.4836 58.5628 26.3199 58.3437 25.9811C58.122 25.6406 58.0093 25.1566 58.0093 24.5432C58.0093 23.9307 58.122 23.4485 58.3437 23.1106C58.5628 22.7762 58.8981 22.6134 59.3689 22.6134C59.8388 22.6134 60.1758 22.7762 60.3994 23.1106C60.6238 23.4485 60.7382 23.9307 60.7382 24.5432ZM61.7959 23.4063C61.6921 23.0552 61.5302 22.7454 61.3146 22.4876C61.099 22.2288 60.8262 22.0212 60.5023 21.8698C60.1794 21.7193 59.7975 21.6428 59.3689 21.6428C58.9395 21.6428 58.5575 21.7193 58.2346 21.8698C57.9108 22.0212 57.638 22.2288 57.4215 22.4876C57.2068 22.7463 57.0448 23.056 56.9401 23.4063C56.8372 23.7556 56.7853 24.1375 56.7853 24.5432C56.7853 24.9489 56.8372 25.3317 56.9401 25.6802C57.0448 26.0304 57.2059 26.3402 57.4224 26.5989C57.638 26.8576 57.9116 27.0644 58.2346 27.2113C58.5584 27.3583 58.9395 27.4331 59.3689 27.4331C59.7975 27.4331 60.1785 27.3583 60.5023 27.2113C60.8253 27.0644 61.099 26.8576 61.3146 26.5989C61.5302 26.341 61.6921 26.0313 61.7959 25.6802C61.8997 25.3308 61.9517 24.948 61.9517 24.5432C61.9517 24.1384 61.8997 23.7556 61.7959 23.4063ZM70.3474 26.2558C70.3474 26.2558 70.4468 26.2171 70.482 26.3201L70.7416 27.0373C70.775 27.1262 70.6985 27.1631 70.6985 27.1631C70.299 27.3206 69.7428 27.4306 69.2007 27.4306C68.2838 27.4306 67.5807 27.1658 67.1125 26.6448C66.6452 26.1256 66.4085 25.4163 66.4085 24.539C66.4085 24.1333 66.4666 23.7496 66.581 23.4003C66.6963 23.05 66.8688 22.7403 67.0958 22.4816C67.3228 22.2229 67.6097 22.0152 67.9476 21.8647C68.2864 21.7133 68.6824 21.6377 69.1268 21.6377C69.4243 21.6377 69.6918 21.6561 69.9206 21.6913C70.1652 21.7283 70.489 21.8154 70.6263 21.8691C70.651 21.8788 70.7196 21.9131 70.6914 21.9932C70.6244 22.1852 70.5713 22.3317 70.515 22.4866L70.515 22.4868C70.4885 22.5596 70.4614 22.6343 70.4318 22.7165C70.3922 22.8256 70.3086 22.7896 70.3086 22.7896C69.9602 22.6796 69.6275 22.6294 69.1911 22.6294C68.6675 22.6294 68.275 22.8045 68.0172 23.146C67.7576 23.4892 67.6132 23.9397 67.6115 24.539C67.6097 25.1972 67.7734 25.6839 68.0655 25.9848C68.3568 26.2858 68.7634 26.438 69.2755 26.438C69.4841 26.438 69.6786 26.4239 69.8554 26.3966C70.0297 26.3694 70.1934 26.3148 70.3474 26.2558ZM72.3327 23.9551C72.3828 23.6146 72.477 23.3312 72.6222 23.1103C72.8413 22.775 73.1757 22.5911 73.6456 22.5911C74.1155 22.5911 74.4262 22.7759 74.6488 23.1103C74.7966 23.3312 74.8609 23.6269 74.8864 23.9551H72.3327ZM75.894 23.2062C75.8042 22.8674 75.5816 22.5251 75.4355 22.3685C75.2049 22.1203 74.9797 21.947 74.7562 21.8502C74.464 21.7252 74.1138 21.6425 73.7301 21.6425C73.2831 21.6425 72.8774 21.7173 72.5483 21.8722C72.2183 22.0271 71.9411 22.2382 71.7237 22.5014C71.5064 22.7636 71.3427 23.076 71.2388 23.4306C71.1341 23.7835 71.0813 24.1681 71.0813 24.5737C71.0813 24.9865 71.1359 25.371 71.2441 25.7168C71.3532 26.0653 71.5275 26.3724 71.7633 26.6268C71.9983 26.8828 72.301 27.0835 72.6635 27.2234C73.0235 27.3624 73.4608 27.4346 73.9633 27.4337C74.9973 27.4302 75.542 27.1996 75.7664 27.0755C75.806 27.0535 75.8438 27.0148 75.7963 26.9039L75.5622 26.2484C75.527 26.1507 75.4276 26.1868 75.4276 26.1868C75.4052 26.1951 75.382 26.2039 75.3578 26.2132C75.1042 26.3103 74.7331 26.4524 73.958 26.4508C73.4027 26.4499 72.9909 26.2862 72.7331 26.0301C72.4682 25.7679 72.3388 25.3824 72.3159 24.8386L75.8966 24.8421C75.8966 24.8421 75.9908 24.8404 76.0005 24.7489L76.0026 24.7323C76.0185 24.6159 76.1082 23.9589 75.894 23.2062ZM43.9465 23.1103C43.8013 23.3312 43.708 23.6146 43.6569 23.9551H46.2107C46.1852 23.6269 46.1209 23.3312 45.974 23.1103C45.7504 22.7759 45.4398 22.5911 44.9699 22.5911C44.5 22.5911 44.1656 22.775 43.9465 23.1103ZM46.7598 22.3685C46.9059 22.5251 47.1276 22.8674 47.2174 23.2062C47.4324 23.959 47.3428 24.616 47.3269 24.7323L47.3247 24.7489C47.3151 24.8404 47.2209 24.8421 47.2209 24.8421L43.6402 24.8386C43.6631 25.3824 43.7925 25.7679 44.0573 26.0301C44.3152 26.2862 44.727 26.4499 45.2814 26.4508C46.0577 26.4524 46.4282 26.3104 46.6817 26.2134L46.715 26.2007L46.7519 26.1868C46.7519 26.1868 46.8513 26.1507 46.8874 26.2484L47.1206 26.9039C47.1681 27.0148 47.1303 27.0535 47.0907 27.0755C46.8663 27.1996 46.3216 27.4302 45.2876 27.4337C44.7851 27.4346 44.3477 27.3624 43.9878 27.2234C43.6253 27.0835 43.3226 26.8828 43.0876 26.6268C42.8518 26.3724 42.6775 26.0653 42.5684 25.7168C42.4602 25.371 42.4056 24.9865 42.4056 24.5737C42.4056 24.1681 42.4593 23.7835 42.5631 23.4306C42.667 23.076 42.8306 22.7636 43.048 22.5014C43.2654 22.2382 43.5425 22.0271 43.8725 21.8722C44.2017 21.7173 44.6082 21.6425 45.0544 21.6425C45.438 21.6425 45.7883 21.7252 46.0804 21.8502C46.304 21.947 46.5292 22.1203 46.7598 22.3685ZM35.9171 26.2997C35.7772 26.188 35.7578 26.1598 35.7103 26.0876C35.6399 25.9776 35.6038 25.821 35.6038 25.6221C35.6038 25.3071 35.7076 25.0809 35.9232 24.9287C35.9206 24.9296 36.2312 24.6603 36.9616 24.67C37.4747 24.677 37.9331 24.7527 37.9331 24.7527V26.3807H37.934C37.934 26.3807 37.4791 26.4783 36.9669 26.5091C36.2383 26.5531 35.9144 26.2988 35.9171 26.2997ZM37.3418 23.7838C37.1966 23.7733 37.0083 23.7671 36.783 23.7671C36.4759 23.7671 36.1793 23.8058 35.9012 23.8806C35.6214 23.9554 35.3697 24.0725 35.1533 24.2273C34.9359 24.3831 34.7608 24.582 34.6341 24.8178C34.5073 25.0536 34.4431 25.3317 34.4431 25.6432C34.4431 25.96 34.4977 26.2355 34.6068 26.4607C34.7159 26.6869 34.8734 26.8752 35.0741 27.0204C35.2729 27.1656 35.5184 27.2721 35.8036 27.3363C36.0843 27.4006 36.4028 27.4331 36.7513 27.4331C37.1183 27.4331 37.4843 27.4032 37.839 27.3425C38.1901 27.2827 38.6213 27.1955 38.741 27.1683C38.8598 27.1401 38.9918 27.104 38.9918 27.104C39.0806 27.082 39.0736 26.987 39.0736 26.987L39.0718 23.7125C39.0718 22.9945 38.88 22.4621 38.5025 22.1321C38.1267 21.803 37.5732 21.6366 36.8578 21.6366C36.5894 21.6366 36.1573 21.6736 35.8986 21.7255C35.8986 21.7255 35.1163 21.8769 34.7942 22.1286C34.7942 22.1286 34.7238 22.1726 34.7625 22.2711L35.016 22.9522C35.0477 23.0402 35.133 23.0103 35.133 23.0103C35.133 23.0103 35.1603 22.9998 35.192 22.9813C35.881 22.6064 36.7522 22.6178 36.7522 22.6178C37.1394 22.6178 37.4368 22.6953 37.6375 22.8493C37.8328 22.9989 37.9323 23.225 37.9323 23.702V23.8533C37.6243 23.8093 37.3418 23.7838 37.3418 23.7838ZM66.1679 21.8106C66.1916 21.8194 66.2488 21.8581 66.2215 21.9391C66.1881 22.0367 66.0139 22.5269 65.9523 22.6906C65.9294 22.7531 65.8907 22.7953 65.822 22.7874C65.822 22.7874 65.6161 22.739 65.4287 22.739C65.2984 22.739 65.1145 22.7557 64.9482 22.8067C64.7854 22.8569 64.6367 22.9458 64.5056 23.0725C64.3753 23.2001 64.2697 23.3778 64.1923 23.5996C64.1131 23.824 64.0735 24.1813 64.0735 24.5394V27.2076C64.0735 27.2674 64.0251 27.3167 63.9652 27.3167H63.0245C62.9647 27.3167 62.9154 27.2674 62.9154 27.2076V21.8669C62.9154 21.8062 62.9585 21.7578 63.0184 21.7578H63.9362C63.996 21.7578 64.0392 21.8062 64.0392 21.8669V22.3025C64.1764 22.1186 64.4228 21.9567 64.6446 21.8563C64.8681 21.756 65.118 21.6803 65.5677 21.7076C65.8027 21.7226 66.1071 21.7868 66.1679 21.8106ZM57.3914 19.4638C57.277 19.4286 57.1731 19.4049 57.0376 19.3794C56.9003 19.3547 56.7367 19.3424 56.551 19.3424C55.9033 19.3424 55.3929 19.5254 55.0348 19.8862C54.6784 20.2453 54.4364 20.7917 54.3149 21.5107L54.2709 21.7527H53.4578C53.4578 21.7527 53.3593 21.7492 53.3382 21.8565L53.2053 22.6019C53.1956 22.6723 53.2264 22.7172 53.3214 22.7172H54.1125L53.31 27.1981C53.2475 27.5589 53.1754 27.8554 53.0953 28.0807C53.017 28.3025 52.9404 28.4688 52.8454 28.5902C52.7538 28.7064 52.6676 28.7926 52.518 28.8428C52.3948 28.8841 52.2522 28.9035 52.0965 28.9035C52.0102 28.9035 51.895 28.8894 51.8096 28.8718C51.7251 28.8551 51.6803 28.8366 51.616 28.8093C51.616 28.8093 51.5236 28.7741 51.4867 28.8665C51.4576 28.9431 51.2464 29.523 51.2209 29.5943C51.1963 29.6656 51.2315 29.721 51.2763 29.7377C51.3819 29.7747 51.4603 29.7993 51.6037 29.8336C51.8026 29.8803 51.9706 29.8829 52.1282 29.8829C52.4573 29.8829 52.7582 29.8363 53.0073 29.7465C53.2572 29.6559 53.4754 29.4984 53.669 29.2854C53.8776 29.0548 54.0087 28.8137 54.1337 28.4837C54.2577 28.1581 54.3642 27.7533 54.4487 27.2817L55.2556 22.7172H56.4348C56.4348 22.7172 56.5343 22.7207 56.5545 22.6124L56.6883 21.868C56.6971 21.7967 56.6671 21.7527 56.5712 21.7527H55.4264C55.4273 21.7489 55.4291 21.7371 55.4321 21.7184L55.4321 21.7183L55.4322 21.7182C55.4495 21.609 55.5037 21.2683 55.6156 20.9449C55.6719 20.7838 55.7775 20.6527 55.8664 20.5629C55.9544 20.4749 56.0556 20.4125 56.1664 20.3764C56.2799 20.3394 56.4093 20.3218 56.551 20.3218C56.6583 20.3218 56.7648 20.3341 56.8449 20.3509C56.9558 20.3746 56.9989 20.3869 57.0279 20.3957C57.145 20.4309 57.1608 20.3966 57.1837 20.3403L57.4574 19.5888C57.4855 19.5078 57.416 19.4735 57.3914 19.4638ZM41.2924 27.3161C41.3523 27.3161 41.3954 27.2677 41.3954 27.2079V19.566C41.3954 19.5062 41.3523 19.4578 41.2924 19.4578H40.3429C40.2831 19.4578 40.2408 19.5062 40.2408 19.566V27.2079C40.2408 27.2677 40.2831 27.3161 40.3429 27.3161H41.2924Z" fill="#9CA3AF"></path></g><defs><clipPath id="clip0_1595_83139"><rect width="61.7751" height="43.2577" fill="white" transform="translate(20.5442 4.21484)"></rect></clipPath></defs></svg>