<svg xmlns="http://www.w3.org/2000/svg" width="103" height="52" viewBox="0 0 103 52" fill="none"><g clip-path="url(#clip0_1595_82991)"><path fill-rule="evenodd" clip-rule="evenodd" d="M7.96204 30.8157L11.0203 28.4731C12.6444 30.5935 14.3691 31.5706 16.2909 31.5706C18.2021 31.5706 19.8794 30.6047 21.4306 28.5012L24.531 30.7876C22.2944 33.8205 19.5117 35.4228 16.2909 35.4228C13.0807 35.4228 10.2722 33.8318 7.96204 30.8157Z" fill="#9CA3AF"></path><path fill-rule="evenodd" clip-rule="evenodd" d="M16.2814 20.6346L10.8382 25.3249L8.32349 22.4066L16.2923 15.54L24.1991 22.4119L21.672 25.3196L16.2814 20.6346Z" fill="#9CA3AF"></path><path d="M45.4076 19.5H42.3257V32.341H45.4076V19.5Z" fill="#9CA3AF"></path><path fill-rule="evenodd" clip-rule="evenodd" d="M36.0968 32.398C34.28 32.398 32.7661 31.8092 31.5381 30.6317C30.3101 29.4374 29.7045 27.9066 29.7045 26.0393C29.7045 24.1553 30.3269 22.6077 31.5549 21.3966C32.7997 20.1686 34.3136 19.563 36.1136 19.563C38.334 19.563 40.3023 20.5218 41.446 22.019L39.4443 24.1217C38.4854 23.0956 37.4425 22.5741 36.3154 22.5741C35.3566 22.5741 34.566 22.8937 33.9099 23.5497C33.2707 24.2058 32.9511 25.0301 32.9511 26.0226C32.9511 26.9814 33.2707 27.7888 33.9099 28.4449C34.566 29.0841 35.3566 29.4037 36.2986 29.4037C37.5266 29.4037 38.6032 28.8654 39.4947 27.8056L41.5808 29.8074C41.0089 30.5644 40.2349 31.1868 39.276 31.6746C38.3174 32.1625 37.2575 32.398 36.0968 32.398Z" fill="#9CA3AF"></path><path fill-rule="evenodd" clip-rule="evenodd" d="M50.0298 20.5272C50.0298 21.4492 49.2826 22.1966 48.3606 22.1966C47.4386 22.1966 46.6912 21.4492 46.6912 20.5272C46.6912 19.6053 47.4386 18.8579 48.3606 18.8579C49.2826 18.8579 50.0298 19.6053 50.0298 20.5272ZM49.9014 22.967H46.8196V32.341H49.9014V22.967Z" fill="#9CA3AF"></path><path fill-rule="evenodd" clip-rule="evenodd" d="M55.8588 32.4144C54.3954 32.4144 53.2178 31.9602 52.2927 31.0518C51.3843 30.1434 50.9299 28.9827 50.9299 27.5529C50.9299 26.123 51.3843 24.9623 52.3094 24.054C53.2347 23.1456 54.429 22.6914 55.9093 22.6914C57.844 22.6914 59.5427 23.6334 60.3334 25.3997L57.9615 26.6445C57.4905 25.8539 56.8346 25.4502 55.9767 25.4502C55.3543 25.4502 54.8495 25.652 54.4459 26.0557C54.0589 26.4595 53.8571 26.9641 53.8571 27.5529C53.8571 28.7809 54.7486 29.6892 55.9431 29.6892C56.8008 29.6892 57.5914 29.2182 57.928 28.4949L60.2998 29.9079C59.4923 31.4555 57.8271 32.4144 55.8588 32.4144Z" fill="#9CA3AF"></path><path fill-rule="evenodd" clip-rule="evenodd" d="M64.1555 19.5H61.0737V32.341H64.1555V29.072L64.5166 28.7353L67.3337 32.341H70.9188L66.5905 26.8012L70.7022 22.967H66.9364L64.1555 25.5604V19.5Z" fill="#9CA3AF"></path><path fill-rule="evenodd" clip-rule="evenodd" d="M71.4746 27.4886V19.5H74.6851V27.3098C74.6851 28.706 75.4987 29.3788 76.6754 29.3788C77.8349 29.3788 78.6657 28.6723 78.6657 27.3098V19.5H81.8759V27.4886C81.8759 31.1558 79.3013 32.5352 76.6754 32.5352C74.0664 32.5352 71.4746 31.1558 71.4746 27.4886Z" fill="#9CA3AF"></path><path fill-rule="evenodd" clip-rule="evenodd" d="M88.8103 32.598C91.2924 32.598 93.3048 30.4134 93.3048 27.7184C93.3048 25.0235 91.2924 22.8389 88.8103 22.8389C87.7985 22.8389 86.865 23.2018 86.1137 23.8144V22.9673H83.1603V36.1935H86.1137V31.6225C86.865 32.2351 87.7985 32.598 88.8103 32.598ZM86.1137 27.7235V27.7134C86.1164 26.5101 87.0638 25.5355 88.2324 25.5355C89.4027 25.5355 90.3514 26.5128 90.3514 27.7184C90.3514 28.9241 89.4027 29.9014 88.2324 29.9014C87.0638 29.9014 86.1164 28.9268 86.1137 27.7235Z" fill="#9CA3AF"></path></g><defs><clipPath id="clip0_1595_82991"><rect width="85.7988" height="20.8454" fill="white" transform="translate(7.72192 15.4438)"></rect></clipPath></defs></svg>