<svg xmlns="http://www.w3.org/2000/svg" width="103" height="52" viewBox="0 0 103 52" fill="none"><path fill-rule="evenodd" clip-rule="evenodd" d="M56.7125 22.0041H59.1204L54.7609 32.5014H52.375L54.1122 28.2005L51.3305 22.0041H53.8099L55.2777 25.6365L56.7125 22.0041ZM59.7526 18.2949H61.9901V29.0333H59.7636L59.7526 18.2949ZM66.6519 21.8233H66.7729C67.2566 21.8178 67.7404 21.9164 68.1912 22.0972C68.642 22.2835 69.0543 22.5519 69.4007 22.8916C69.747 23.2368 70.0219 23.6422 70.2088 24.0915C70.3957 24.5407 70.4946 25.0174 70.4946 25.505V25.6146C70.4782 26.0967 70.3682 26.5733 70.1648 27.0116C69.9614 27.4554 69.6755 27.8499 69.3182 28.1841C68.9609 28.5128 68.543 28.7703 68.0868 28.9402C67.636 29.11 67.1467 29.1867 66.6629 29.1703H66.542C66.0582 29.1703 65.5744 29.0771 65.1291 28.8963C64.6783 28.7101 64.2715 28.4416 63.9252 28.1019C63.5843 27.7622 63.3095 27.3568 63.1226 26.913C62.9356 26.4638 62.8367 25.9871 62.8312 25.505V25.3735C62.8532 24.8914 62.9631 24.4147 63.1665 23.9764C63.3699 23.5381 63.6558 23.1382 64.0076 22.8094C64.365 22.4807 64.7828 22.2232 65.2391 22.0534C65.6899 21.8835 66.1736 21.8068 66.6629 21.8233H66.6519ZM66.7509 27.1048C66.9543 27.0938 67.1467 27.0445 67.3281 26.9623C67.5095 26.8747 67.6744 26.7541 67.8119 26.6062C67.9438 26.4583 68.0483 26.283 68.1197 26.0967C68.1857 25.9049 68.2132 25.7077 68.2077 25.505V25.4173C68.2022 25.2146 68.1637 25.0119 68.0813 24.8256C68.0043 24.6393 67.8889 24.475 67.7459 24.3325C67.5975 24.1901 67.4271 24.0805 67.2401 24.0038C67.0532 23.9271 66.8498 23.8887 66.6464 23.8942H66.553C66.3496 23.8997 66.1517 23.949 65.9702 24.0367C65.7833 24.1243 65.6184 24.2449 65.4865 24.3983C65.349 24.5462 65.2446 24.7215 65.1731 24.9133C65.1071 25.0996 65.0796 25.3023 65.0906 25.505V25.6091C65.0906 25.8063 65.1346 26.0036 65.2171 26.1898C65.2995 26.3706 65.415 26.5405 65.5579 26.6774C65.7009 26.8144 65.8768 26.924 66.0637 27.0007C66.2506 27.0719 66.4485 27.1048 66.6519 27.1048H66.7509ZM75.107 23.9107H74.9641C74.7607 23.9161 74.5628 23.9655 74.3759 24.0476C74.1889 24.1298 74.024 24.2503 73.8866 24.3983C73.7491 24.5462 73.6392 24.7215 73.5677 24.9133C73.4963 25.105 73.4633 25.3023 73.4743 25.505V25.6584C73.4853 25.8611 73.5347 26.0583 73.6227 26.2446C73.7107 26.4254 73.8316 26.5898 73.9855 26.7268C74.134 26.8637 74.3154 26.9678 74.5078 27.0336C74.7002 27.1048 74.9036 27.1322 75.107 27.1212C75.2353 27.1212 75.3636 27.1048 75.4918 27.0719C75.6201 27.0427 75.7429 26.997 75.8602 26.9349C75.9738 26.8765 76.0819 26.8053 76.1845 26.7213C76.2835 26.6373 76.3733 26.5441 76.4539 26.4419L78.1746 27.5267C78.0097 27.7842 77.8118 28.0143 77.5864 28.2225C77.361 28.4252 77.1136 28.606 76.8442 28.7484C76.5748 28.8909 76.289 29.0004 75.9921 29.0717C75.6952 29.1429 75.3929 29.1812 75.0905 29.1758C73.029 29.1758 71.1983 27.7294 71.1983 25.4995C71.1983 23.2642 73.029 21.8342 75.0905 21.8342C75.3929 21.8287 75.6952 21.8671 75.9921 21.9383C76.289 22.0095 76.5748 22.1191 76.8442 22.2616C77.1136 22.4095 77.361 22.5848 77.5864 22.7875C77.8118 22.9957 78.0097 23.2258 78.1746 23.4833L76.4484 24.5681C76.3714 24.4658 76.2816 24.3727 76.179 24.2887C76.0801 24.2047 75.9719 24.1335 75.8547 24.075C75.7374 24.0166 75.6164 23.9709 75.4918 23.9381C75.3636 23.9088 75.2335 23.8924 75.1015 23.8887L75.107 23.9107ZM80.1207 18.3388H80.1537C80.3241 18.3333 80.4945 18.3661 80.6539 18.4319C80.8134 18.4976 80.9618 18.5908 81.0827 18.7113C81.2092 18.8318 81.3081 18.9743 81.3741 19.1332C81.4456 19.2921 81.4786 19.4619 81.4841 19.6317C81.4786 19.8071 81.4401 19.9769 81.3686 20.1358C81.2971 20.2947 81.1982 20.4426 81.0718 20.5631C80.9453 20.6837 80.7969 20.7768 80.632 20.8371C80.4725 20.9028 80.2966 20.9357 80.1207 20.9302C79.9448 20.9357 79.7689 20.9028 79.6039 20.8426C79.439 20.7823 79.2906 20.6891 79.1586 20.5686C79.0322 20.4481 78.9277 20.3002 78.8508 20.1413C78.7793 19.9824 78.7353 19.8071 78.7298 19.6317C78.7353 19.4619 78.7793 19.2866 78.8563 19.1277C78.9277 18.9743 79.0377 18.8318 79.1641 18.7113C79.2961 18.5963 79.4445 18.5031 79.6094 18.4428C79.7744 18.3826 79.9503 18.3552 80.1262 18.3661L80.1207 18.3388ZM78.9937 22.015H81.2312V29.0498H78.9937V22.015ZM85.7611 19.4838V22.015H89.3344L90.8023 25.6474L92.2371 22.015H94.645L90.2965 32.5123H87.9051L89.6423 28.2115L87.6137 23.6915H85.7721V29.0552H83.5346V23.6915H82.2482V22.015H83.5346V19.4948L85.7611 19.4838ZM38.7853 21.8397H38.9172C39.379 21.8671 39.8243 21.9767 40.2421 22.1739C40.6544 22.3711 41.0283 22.6451 41.3361 22.9848C41.6385 23.3244 41.8804 23.7244 42.0288 24.1572C42.1827 24.5846 42.2487 25.0448 42.2267 25.4995V25.6529C42.2322 26.1077 42.1498 26.5569 41.9793 26.9788C41.8089 27.4061 41.556 27.7896 41.2372 28.1184C40.9183 28.4416 40.539 28.7046 40.1157 28.8799C39.6979 29.0607 39.2471 29.1593 38.7853 29.1648C38.5837 29.1685 38.3822 29.152 38.1806 29.1155C37.979 29.0753 37.7848 29.0169 37.5979 28.9402C37.4109 28.8598 37.2332 28.7612 37.0646 28.6443C36.8997 28.5274 36.7476 28.3941 36.6083 28.2444V32.5123H34.3708V22.015H36.6083V22.793C36.7458 22.6396 36.8997 22.5026 37.0646 22.3821C37.2295 22.267 37.4054 22.1629 37.5924 22.0808C37.7793 22.0041 37.9772 21.9438 38.1806 21.9C38.3785 21.8616 38.5819 21.8452 38.7853 21.8506V21.8397ZM38.9337 26.9788C39.1316 26.9021 39.3076 26.7815 39.4615 26.6336C39.6099 26.4857 39.7309 26.3104 39.8133 26.1186C39.9013 25.9214 39.9453 25.7132 39.9453 25.505C39.9453 24.864 39.555 24.2887 38.9667 24.0422C38.373 23.7956 37.6913 23.9271 37.2295 24.3764C36.7732 24.8256 36.6303 25.4995 36.8667 26.0967C37.1031 26.6939 37.6748 27.0884 38.3125 27.0993C38.5269 27.0993 38.7358 27.061 38.9337 26.9788ZM48.4443 22.015H50.6708V29.0552H48.4443V28.2334C48.3069 28.3868 48.153 28.5238 47.9881 28.6443C47.8176 28.7594 47.6417 28.8635 47.4493 28.9457C47.2624 29.0224 47.0645 29.0826 46.8611 29.1265C46.6632 29.1648 46.4543 29.1812 46.2509 29.1758H46.1079C45.6516 29.1484 45.2063 29.0333 44.794 28.8361C44.3872 28.6388 44.0189 28.3594 43.711 28.0252C43.4087 27.6855 43.1723 27.2856 43.0238 26.8582C42.8754 26.4309 42.8094 25.9762 42.8314 25.5214V25.379C42.8259 24.9242 42.9084 24.4695 43.0733 24.0476C43.2437 23.6203 43.4911 23.2368 43.81 22.908C44.1288 22.5793 44.5082 22.3163 44.926 22.1355C45.3493 21.9547 45.8001 21.8561 46.2564 21.8506C46.4598 21.8452 46.6687 21.8616 46.8666 21.9C47.07 21.9383 47.2679 21.9986 47.4548 22.0808C47.6472 22.1629 47.8231 22.2616 47.9935 22.3821C48.1585 22.5026 48.3124 22.6396 48.4498 22.793L48.4443 22.015ZM46.7346 27.1048C46.9435 27.1048 47.1524 27.061 47.3503 26.9843C47.5428 26.9021 47.7187 26.787 47.8671 26.6446C48.021 26.4966 48.142 26.3213 48.2244 26.1296C48.3069 25.9378 48.3509 25.7296 48.3564 25.5214C48.3564 24.8804 47.9716 24.3051 47.3833 24.0586C46.7951 23.812 46.1134 23.9381 45.6571 24.3873C45.2008 24.8311 45.0579 25.5105 45.2943 26.1022C45.5307 26.6939 46.1024 27.0884 46.7401 27.0993L46.7346 27.1048Z" fill="#9CA3AF"></path><path fill-rule="evenodd" clip-rule="evenodd" d="M8.84619 26.5898V26.5734C8.84619 26.5551 8.84802 26.5387 8.85169 26.5241C8.85535 26.5095 8.86085 26.4967 8.86818 26.4857C8.87918 26.4748 8.892 26.4656 8.90666 26.4583C8.91766 26.451 8.93049 26.4455 8.94515 26.4419H15.4871C15.4981 26.4419 15.5091 26.4437 15.5201 26.4474C15.5311 26.4547 15.5403 26.462 15.5476 26.4693C15.5549 26.4766 15.5623 26.4857 15.5696 26.4967C15.5732 26.504 15.5769 26.5131 15.5806 26.5241C16.834 31.2523 18.0214 32.8301 19.0495 32.8301C20.4843 32.8301 21.6058 29.773 22.161 27.8883C22.1995 27.7513 22.3754 27.8061 22.3534 27.9486C21.1715 35.6243 17.6311 35.6243 16.4877 35.6243C12.9253 35.6188 9.9072 31.833 8.84619 26.5898ZM29.2528 26.5569C28.2137 31.7563 25.1956 35.6079 21.6168 35.6079C21.4848 35.6079 21.3511 35.6024 21.2155 35.5914C21.0835 35.5805 20.9498 35.564 20.8142 35.5421C20.6822 35.5239 20.5503 35.4983 20.4183 35.4654C20.2901 35.4362 20.1618 35.4015 20.0335 35.3613C20.0299 35.3577 20.0262 35.3559 20.0225 35.3559C20.0189 35.3522 20.0152 35.3504 20.0115 35.3504C20.0079 35.3467 20.006 35.3431 20.006 35.3394C20.0024 35.3358 19.9987 35.3339 19.995 35.3339C19.984 35.3193 19.9749 35.3047 19.9675 35.2901C19.9602 35.2755 19.9566 35.2591 19.9566 35.2408C19.9566 35.2225 19.9602 35.2061 19.9675 35.1915C19.9749 35.1769 19.984 35.1623 19.995 35.1477C21.7762 33.5205 22.8097 30.5838 23.2165 26.546C23.2165 26.5314 23.2202 26.5186 23.2275 26.5076C23.2312 26.493 23.2367 26.4821 23.244 26.4748C23.255 26.4638 23.266 26.4565 23.277 26.4529C23.288 26.4455 23.3008 26.4419 23.3155 26.4419H29.1483C29.163 26.4419 29.1758 26.4455 29.1868 26.4529C29.2014 26.4602 29.2124 26.4693 29.2198 26.4802C29.2308 26.4912 29.2381 26.5022 29.2418 26.5131C29.2491 26.5277 29.2509 26.5423 29.2473 26.5569H29.2528Z" fill="#9CA3AF"></path><path fill-rule="evenodd" clip-rule="evenodd" d="M29.2473 24.4201C29.2473 24.4238 29.2473 24.4256 29.2473 24.4256C29.2473 24.4256 29.2473 24.4274 29.2473 24.4311C29.2473 24.4311 29.2473 24.4329 29.2473 24.4366C29.2509 24.4512 29.2509 24.4658 29.2473 24.4804C29.2473 24.495 29.2418 24.5096 29.2308 24.5242C29.2234 24.5352 29.2143 24.5461 29.2033 24.5571C29.1886 24.5644 29.174 24.5699 29.1593 24.5735H22.6173C22.6027 24.5735 22.5917 24.5717 22.5843 24.5681C22.5733 24.5608 22.5623 24.5534 22.5514 24.5461C22.544 24.5388 22.5367 24.5315 22.5294 24.5242C22.5257 24.5133 22.522 24.5023 22.5184 24.4914C21.2704 19.7577 20.083 18.1798 19.0495 18.1798C17.6201 18.1798 16.4932 21.2424 15.9379 23.1271C15.8994 23.2586 15.7235 23.2093 15.7455 23.0614C16.933 15.3911 20.4788 15.3911 21.6003 15.3911C25.1736 15.3911 28.1917 19.1769 29.2473 24.4201ZM16.4877 15.4021C16.6196 15.4021 16.7534 15.4075 16.889 15.4185C17.0209 15.4295 17.1529 15.4459 17.2848 15.4678C17.4167 15.4897 17.5487 15.5153 17.6806 15.5445C17.8125 15.5774 17.9408 15.6139 18.0654 15.6541C18.0691 15.6577 18.0728 15.6596 18.0764 15.6596C18.0801 15.6632 18.0838 15.6651 18.0874 15.6651C18.0911 15.6687 18.0947 15.6724 18.0984 15.676C18.1021 15.676 18.1039 15.6778 18.1039 15.6815C18.1186 15.6961 18.1277 15.7107 18.1314 15.7253C18.1387 15.7399 18.1424 15.7564 18.1424 15.7746C18.1424 15.7892 18.1387 15.8038 18.1314 15.8185C18.1277 15.8367 18.1186 15.8513 18.1039 15.8623C16.3227 17.484 15.2892 20.4316 14.8824 24.4694C14.8824 24.484 14.8806 24.4968 14.8769 24.5078C14.8696 24.5187 14.8622 24.5297 14.8549 24.5407C14.8439 24.548 14.8329 24.5553 14.8219 24.5626C14.8109 24.5662 14.7981 24.5681 14.7834 24.5681H8.94515C8.93415 24.5681 8.92132 24.5644 8.90666 24.5571C8.892 24.5498 8.88101 24.5407 8.87368 24.5297C8.86268 24.5187 8.85535 24.5078 8.85169 24.4968C8.84802 24.4822 8.84619 24.4676 8.84619 24.453C9.88521 19.2591 12.9088 15.4021 16.4877 15.4021Z" fill="#9CA3AF"></path></svg>