<svg xmlns="http://www.w3.org/2000/svg" width="103" height="52" viewBox="0 0 103 52" fill="none"><g clip-path="url(#clip0_1595_83046)"><path d="M34.795 25.8294C34.795 21.8143 34.8012 17.7962 34.7857 13.7843C34.7857 13.2262 35.1546 12.8789 35.7127 12.8789C36.7451 12.8727 37.7838 12.8696 38.8162 12.8789C39.4022 12.8851 39.7432 13.2417 39.737 13.7905C39.7215 17.3435 39.7277 20.9028 39.7277 24.4559V24.6512C39.7339 25.045 39.9076 25.3333 40.2703 25.4883C40.6206 25.6371 40.9493 25.5596 41.2345 25.2558C42.2763 24.1396 43.3149 23.0204 44.3504 21.9011C44.986 21.2128 45.6309 20.5339 46.2603 19.8425C46.499 19.582 46.775 19.458 47.1315 19.4642C48.4306 19.4735 49.7359 19.4735 51.0349 19.4642C51.4194 19.4642 51.7232 19.582 51.8845 19.9386C52.0488 20.3075 51.9713 20.6362 51.6953 20.9369C49.7452 23.0948 47.8012 25.2558 45.8541 27.4137C45.6991 27.5873 45.5472 27.7671 45.4263 27.9655C45.2093 28.3159 45.2093 28.66 45.4108 29.0166C45.6278 29.401 45.9348 29.7111 46.2386 30.0242C48.598 32.4487 50.9636 34.8733 53.3292 37.2916C53.6145 37.5861 53.6982 37.9086 53.5556 38.2868C53.4192 38.6403 53.1494 38.8015 52.7061 38.8015C51.2613 38.8015 49.8134 38.7953 48.3686 38.8015C48.043 38.8015 47.7919 38.6992 47.5594 38.4511C45.4604 36.2468 43.3459 34.0548 41.2376 31.8597C40.9369 31.5434 40.602 31.4628 40.2548 31.6085C39.9045 31.7481 39.7215 32.0457 39.7215 32.4766V37.8807C39.7215 38.4635 39.427 38.7643 38.8503 38.7674H35.6755C35.0399 38.7674 34.7919 38.5163 34.7919 37.89L34.795 25.8294ZM54.495 21.7895C54.495 19.1325 54.5043 16.4723 54.4857 13.8153C54.4795 13.2138 54.8298 12.8696 55.4406 12.8696C56.4452 12.8758 57.4435 12.8696 58.4449 12.8696C59.0309 12.8696 59.3658 13.1983 59.3658 13.7812C59.372 15.3314 59.372 16.8847 59.3751 18.4349C59.3751 19.1046 59.7192 19.4518 60.3827 19.4518H64.5527C64.993 19.4518 65.2813 19.6905 65.3682 20.1215C65.4116 20.3292 65.3961 20.537 65.4023 20.7509V23.3211C65.4023 23.9939 65.1015 24.2947 64.4287 24.2947C63.0956 24.2947 61.7624 24.2885 60.4292 24.2885C59.7471 24.2885 59.3968 24.6326 59.3906 25.3054C59.3844 26.6727 59.3627 28.0338 59.3813 29.401C59.4092 31.4845 61.0059 33.4037 63.0801 33.8935C63.6908 34.0393 64.3109 34.0641 64.931 33.9772C65.4364 33.9059 65.8022 34.1757 65.8611 34.6841C65.9882 35.7662 66.103 36.8513 66.2146 37.9334C66.258 38.3457 65.9572 38.724 65.5325 38.7922C64.3884 38.9875 63.2444 38.9193 62.1189 38.6651C58.1008 37.766 55.1492 34.5539 54.5725 30.4831C54.5136 30.08 54.495 29.677 54.495 29.277V21.7895ZM90.1715 34.4857C90.1715 34.1168 89.8893 33.8594 89.5204 33.8408C89.2692 33.8315 89.0212 33.8222 88.7701 33.8005C87.4865 33.7044 86.8261 33.1029 86.5936 31.838C86.4138 30.8737 86.42 29.894 86.4138 28.9143C86.4045 26.1022 86.4076 23.2901 86.4076 20.478C86.4076 20.3943 86.4076 20.3168 86.4014 20.2362C86.3673 19.7805 86.0386 19.4549 85.5767 19.4549C84.4946 19.4487 83.4095 19.4487 82.3274 19.4549C81.8376 19.4549 81.4903 19.8053 81.4686 20.2889C81.4624 20.4067 81.4686 20.5277 81.4686 20.6672C81.3756 20.6176 81.3043 20.5835 81.2361 20.5494C79.2828 19.5231 77.2117 19.1914 75.0353 19.5541C69.4948 20.4842 65.8828 26.034 67.2594 31.4783C69.008 38.386 77.2893 41.1361 82.8297 36.6405C82.9599 36.5351 83.0126 36.5382 83.1149 36.6808C83.6854 37.4962 84.4388 38.0853 85.3751 38.4418C86.4076 38.8356 87.4834 38.8883 88.5748 38.8108C88.9623 38.7829 89.3468 38.7271 89.7002 38.5504C89.9513 38.4232 90.156 38.2341 90.1622 37.9458C90.1839 36.7924 90.1777 35.6391 90.1715 34.4857ZM76.6909 33.9865C73.9966 33.9772 71.8542 31.7853 71.8635 29.0383C71.8728 26.4401 74.0741 24.2823 76.7157 24.2885C79.4254 24.2947 81.5647 26.4711 81.5585 29.2243C81.5492 31.8194 79.3324 33.9896 76.6909 33.9865ZM22.694 19.4146C17.5474 19.4239 13.0766 23.3986 12.9618 28.9205C12.844 34.6314 17.3675 38.7178 22.4181 38.8449C27.819 38.9813 32.2929 34.7182 32.3859 29.3328C32.4759 23.8513 28.1818 19.4766 22.694 19.4146ZM22.6599 33.9865C20.0029 33.9865 17.8233 31.8039 17.8171 29.1375C17.8109 26.468 19.9874 24.2885 22.6692 24.2792C25.3449 24.273 27.5121 26.4463 27.5121 29.1313C27.5121 31.8163 25.3449 33.9865 22.6599 33.9865Z" fill="#9CA3AF"></path></g><defs><clipPath id="clip0_1595_83046"><rect width="77.2189" height="26.0373" fill="white" transform="translate(12.9586 12.8696)"></rect></clipPath></defs></svg>