<svg xmlns="http://www.w3.org/2000/svg" width="103" height="52" viewBox="0 0 103 52" fill="none"><path fill-rule="evenodd" clip-rule="evenodd" d="M76.4594 22.3658C76.755 22.8756 76.8515 23.4547 76.8832 24.1062L76.9254 24.9734V31.0452L76.9676 31.9154C77.0521 33.3346 78.0987 34.3843 79.53 34.4732L80.3957 34.5155V24.9749L80.4379 24.1077C80.4741 23.4652 80.5691 22.8741 80.8692 22.3598C81.8314 20.7038 83.9534 20.1413 85.6109 21.1005C86.1357 21.4051 86.5715 21.8425 86.8762 22.3703C87.1703 22.8801 87.2638 23.4698 87.3 24.1077L87.3422 24.9734V31.0467L87.3844 31.9169C87.4734 33.3421 88.5125 34.3918 89.9483 34.4747L90.811 34.517V24.1092C90.811 20.2755 87.7057 17.1687 83.872 17.1687C81.8797 17.1672 79.9809 18.0238 78.6658 19.5184C77.3492 18.0223 75.4519 17.1657 73.4597 17.1657C72.0194 17.1657 70.6817 17.6031 69.5732 18.3586C68.896 17.6031 67.3863 17.1657 66.5161 17.1657V34.517L67.3833 34.4747C68.8342 34.3797 69.8854 33.3572 69.9412 31.9169L69.9879 31.0467V24.9749L70.0301 24.1077C70.0663 23.4517 70.1568 22.8771 70.4539 22.3643C71.0753 21.2935 72.22 20.636 73.4582 20.636C74.6933 20.6344 75.8395 21.295 76.4594 22.3658ZM17.0593 34.4732L17.9265 34.5155H30.9388L30.8966 33.6498C30.7774 32.2246 29.7685 31.1809 28.3388 31.0874L27.4716 31.0452H19.6639L30.0716 20.6329L30.0294 19.7673C29.9615 18.327 28.9103 17.2864 27.4716 17.2049L26.6044 17.1642L13.592 17.1597L13.6343 18.0269C13.7489 19.44 14.7729 20.5047 16.1921 20.5847L17.0623 20.6284H24.8685L14.4592 31.0437L14.5015 31.9109C14.5859 33.3451 15.619 34.3812 17.0593 34.4732ZM63.1062 19.7039C66.4935 23.0912 66.495 28.5854 63.1062 31.9712C59.7144 35.3585 54.2232 35.3585 50.8313 31.9712C47.444 28.5839 47.444 23.0882 50.8313 19.7009C52.4586 18.0736 54.6621 17.1597 56.962 17.1597C59.2695 17.1612 61.4789 18.0751 63.1062 19.7039ZM60.6524 22.1607C62.6839 24.1937 62.6839 27.489 60.6524 29.5235C58.6194 31.555 55.3226 31.555 53.2896 29.5235C51.2582 27.4905 51.2582 24.1937 53.2896 22.1607C55.3226 20.1292 58.6194 20.1292 60.6524 22.1607ZM38.7571 17.1642C41.057 17.1642 43.2634 18.0796 44.8877 19.7054C48.2765 23.0927 48.2765 28.5884 44.8877 31.9727C41.4959 35.36 36.0047 35.36 32.6129 31.9727C29.2256 28.5854 29.2256 23.0897 32.6129 19.7024C34.2402 18.0751 36.4436 17.1612 38.7435 17.1612H38.7556V17.1642H38.7571ZM42.4309 22.1577C44.4639 24.1907 44.4639 27.4875 42.4309 29.522C40.3979 31.5535 37.1011 31.5535 35.0681 29.522C33.0367 27.489 33.0367 24.1922 35.0681 22.1592C37.1041 20.1277 40.3979 20.1277 42.4309 22.1577Z" fill="#9CA3AF"></path></svg>