<svg xmlns="http://www.w3.org/2000/svg" width="103" height="52" viewBox="0 0 103 52" fill="none"><path fill-rule="evenodd" clip-rule="evenodd" d="M72.8508 19.8772H70.9187V31.7062H79.996L81.2259 29.7736H72.8508V19.8772ZM46.3549 20.4628L39.2693 31.7067H41.612L43.7494 28.3102H48.3173L49.5179 26.3781H44.95L47.439 22.4837L53.2661 31.7072H55.6083L48.4636 20.4331C48.0242 19.7011 46.8528 19.7011 46.3549 20.4628ZM60.0874 21.8062H68.2128L69.4109 19.8752L60.0279 19.8807C56.7635 19.8807 54.615 22.5271 54.615 25.7914C54.615 29.0568 56.764 31.7032 60.0279 31.7032L67.9651 31.6936L69.2076 29.7772H60.0869C57.8859 29.7772 56.599 27.9929 56.599 25.7914C56.5995 23.5905 57.8864 21.8062 60.0874 21.8062ZM18.6222 19.8807H10.2476C6.98323 19.8807 4.83423 22.5271 4.83423 25.792C4.83423 29.0568 6.98323 31.7032 10.2476 31.7032H18.6222C21.8865 31.7032 24.0355 29.0568 24.0355 25.792C24.0355 22.5271 21.8865 19.8807 18.6222 19.8807ZM18.6222 29.7772H10.2476C8.04664 29.7772 6.75976 27.9929 6.75976 25.792C6.75976 23.591 8.04664 21.8062 10.2476 21.8062H18.6222C20.8231 21.8062 22.11 23.591 22.11 25.792C22.11 27.9929 20.8231 29.7772 18.6222 29.7772ZM86.7492 21.8062H94.8746L96.0737 19.8752L86.6907 19.8807C83.4253 19.8807 81.2768 22.5271 81.2768 25.7914C81.2768 29.0568 83.4258 31.7032 86.6907 31.7032L94.6269 31.6936L95.8694 29.7772H86.7487C84.8696 29.7772 83.6669 28.4782 83.3527 26.7287H93.5857L94.8155 24.7961H83.3527C83.6876 23.0835 84.8968 21.8062 86.7492 21.8062ZM35.0484 26.9002C35.9792 26.9002 36.8719 26.5305 37.5301 25.8723C38.1882 25.2142 38.558 24.3215 38.558 23.3907C38.558 22.4599 38.1882 21.5673 37.5301 20.9091C36.8719 20.251 35.9792 19.8812 35.0484 19.8812L25.1953 19.8772V31.7062H27.362V21.8067H35.0484C35.4686 21.8067 35.8715 21.9736 36.1685 22.2707C36.4656 22.5677 36.6325 22.9706 36.6325 23.3907C36.6325 23.8108 36.4656 24.2137 36.1685 24.5108C35.8715 24.8078 35.4686 24.9747 35.0484 24.9747H28.8849L35.8379 31.6931H38.6352L33.6576 26.9048L35.0484 26.9002ZM98.146 19.7334C97.5649 19.7334 97.074 20.1803 97.074 20.7862C97.074 21.3976 97.5649 21.8451 98.146 21.8451C98.7216 21.8451 99.2129 21.3981 99.2129 20.7862C99.2129 20.1798 98.7211 19.7334 98.146 19.7334ZM98.146 21.6685C97.6632 21.6685 97.2859 21.2942 97.2859 20.7857C97.2859 20.2858 97.6632 19.9089 98.146 19.9089C98.6237 19.9089 99 20.2863 99 20.7857C99 21.2942 98.6237 21.6685 98.146 21.6685Z" fill="#9CA3AF"></path><path fill-rule="evenodd" clip-rule="evenodd" d="M98.3164 20.8622C98.495 20.84 98.6317 20.7447 98.6317 20.5267C98.6317 20.2866 98.4899 20.1802 98.2019 20.1802H97.7378V21.3979H97.9219V20.8703H98.1348L98.4561 21.3979H98.662L98.3164 20.8622ZM97.9219 20.7139V20.3366H98.1742C98.3023 20.3366 98.439 20.3643 98.439 20.5151C98.439 20.7023 98.2993 20.7134 98.1424 20.7134L97.9219 20.7139Z" fill="#9CA3AF"></path></svg>