<svg xmlns="http://www.w3.org/2000/svg" width="103" height="52" viewBox="0 0 103 52" fill="none"><g clip-path="url(#clip0_1595_83072)"><path fill-rule="evenodd" clip-rule="evenodd" d="M32.0795 27.3493C31.7099 26.8432 31.0815 26.4292 30.3205 26.4292C28.9109 26.4292 27.8944 27.5155 27.8944 28.9868C27.8944 30.4587 28.9109 31.5447 30.3205 31.5447C30.979 31.5447 31.5945 31.2611 31.9165 30.9786C31.9381 30.9596 31.9492 30.9323 31.9492 30.9034V30.1054C31.9492 30.0554 31.909 30.0145 31.8593 30.0145H30.0464C29.9743 30.0145 29.9159 29.9554 29.9159 29.8827V28.6983C29.9159 28.6254 29.9743 28.5663 30.0464 28.5663H33.2969V26.8086L32.2474 27.3889C32.1915 27.4199 32.1174 27.4012 32.0795 27.3493ZM16.8207 28.1811H18.7569C19.3114 28.1811 19.658 27.8655 19.658 27.3635C19.658 26.8844 19.3114 26.5459 18.7569 26.5459H16.8207C16.7542 26.5459 16.7006 26.6004 16.7006 26.6673V28.0597C16.7006 28.1267 16.7542 28.1811 16.8207 28.1811ZM24.6926 32.7675C24.6926 32.8276 24.6445 32.876 24.5852 32.876H23.1597C23.1002 32.876 23.0521 32.8276 23.0521 32.7675V25.1949C23.0521 25.135 23.1002 25.0863 23.1597 25.0863H24.5852C24.6445 25.0863 24.6926 25.135 24.6926 25.1949V32.7675ZM18.7501 25.0863H19.115C20.5822 25.0863 21.333 26.0319 21.333 27.0713C21.333 27.8801 20.915 28.4773 20.354 28.7414C20.2608 28.7854 20.2642 28.9187 20.3594 28.958C21.0134 29.2285 21.4834 29.9359 21.4834 30.7621C21.4834 31.9418 20.7208 32.876 19.2422 32.876H15.1802C15.1138 32.876 15.0599 32.8219 15.0599 32.7547V27.8137L4.57322 35.5652C4.37234 35.7138 4.47613 36.0356 4.72543 36.0356H33.0394C33.1816 36.0356 33.297 35.919 33.297 35.7753V31.8549C32.5393 32.5691 31.5431 33.0164 30.3203 33.0164C28.0562 33.0164 26.2078 31.4398 26.2078 28.9869C26.2078 26.5225 28.0562 24.9577 30.3203 24.9577C31.744 24.9577 32.6977 25.6096 33.297 26.4061V14.8467C33.297 14.6337 33.0575 14.5108 32.8872 14.6366L18.7501 25.0863ZM16.8207 31.4161H18.8262C19.4383 31.4161 19.8079 31.0891 19.8079 30.5285C19.8079 30.0382 19.4618 29.6409 18.8262 29.6409H16.8207C16.7542 29.6409 16.7006 29.6953 16.7006 29.7622V31.2948C16.7006 31.3617 16.7542 31.4161 16.8207 31.4161ZM41.514 31.1798L40.6304 30.7166C40.5734 30.6867 40.5016 30.7085 40.4671 30.7632C40.0934 31.3556 39.4039 31.7953 38.6547 31.7953C37.1839 31.7953 36.0919 30.6041 36.0919 28.9805C36.0919 27.3339 37.1839 26.1659 38.6547 26.1659C39.4034 26.1659 40.0926 26.5947 40.4666 27.1951C40.5013 27.2511 40.574 27.2727 40.6316 27.2412L41.5086 26.7582C41.5753 26.7215 41.5987 26.6374 41.5578 26.5723C41.003 25.6896 40.0844 24.9512 38.6547 24.9512C36.4594 24.9512 34.7545 26.5749 34.7545 28.9805C34.7545 31.3748 36.4594 33.01 38.6547 33.01C40.0828 33.01 40.9909 32.252 41.5645 31.3688C41.608 31.3019 41.5841 31.2165 41.514 31.1798ZM46.1199 31.7954C44.6141 31.7954 43.6547 30.5808 43.6547 28.9805C43.6547 27.3691 44.6141 26.1659 46.1199 26.1659C47.6145 26.1659 48.5849 27.3691 48.5849 28.9805C48.5849 30.5808 47.6145 31.7954 46.1199 31.7954ZM45.0666 25.0875C43.4098 25.535 42.3163 27.0426 42.3163 28.9805C42.3163 31.3048 43.8891 33.01 46.1199 33.01C48.0196 33.01 49.4536 31.761 49.8276 29.9436C50.4366 26.984 47.8666 24.3313 45.0666 25.0875ZM59.177 25.0799H57.486C57.4108 25.0799 57.3433 25.1262 57.3158 25.197L55.2706 30.5422L53.2138 25.1965C53.1863 25.1262 53.1188 25.0799 53.0436 25.0799H51.3523C51.3023 25.0799 51.2616 25.121 51.2616 25.1715V32.7782C51.2616 32.8288 51.3023 32.8699 51.3523 32.8699H52.5228C52.5728 32.8699 52.6135 32.8288 52.6135 32.7782V26.8551L54.9657 32.8285C54.9754 32.8535 54.9994 32.8699 55.0259 32.8699H55.5153C55.5418 32.8699 55.5657 32.8535 55.5755 32.8285L57.9161 26.8551V32.7782C57.9161 32.8288 57.9565 32.8699 58.0067 32.8699H59.177C59.2273 32.8699 59.2677 32.8288 59.2677 32.7782V25.1715C59.2677 25.121 59.2273 25.0799 59.177 25.0799ZM76.4629 25.0799H71.4619C71.3848 25.0799 71.3225 25.1429 71.3225 25.2207V32.729C71.3225 32.8069 71.3848 32.8699 71.4619 32.8699H76.4629C76.5399 32.8699 76.6022 32.8069 76.6022 32.729V31.8078C76.6022 31.73 76.5399 31.667 76.4629 31.667H72.8137C72.7367 31.667 72.6744 31.604 72.6744 31.5261V29.6353C72.6744 29.5575 72.7367 29.4945 72.8137 29.4945H76.3823C76.459 29.4945 76.5216 29.4312 76.5216 29.3536V28.4324C76.5216 28.3546 76.459 28.2915 76.3823 28.2915H72.8137C72.7367 28.2915 72.6744 28.2285 72.6744 28.1507V26.4236C72.6744 26.3458 72.7367 26.2828 72.8137 26.2828H76.4629C76.5399 26.2828 76.6022 26.2195 76.6022 26.1419V25.2207C76.6022 25.1429 76.5399 25.0799 76.4629 25.0799ZM81.735 28.7588H80.013C79.9368 28.7588 79.875 28.6963 79.875 28.6192V26.4222C79.875 26.3451 79.9368 26.2826 80.013 26.2826H81.735C82.4971 26.2826 83.0518 26.7617 83.0518 27.5092C83.0518 28.2682 82.4971 28.7588 81.735 28.7588ZM82.7956 29.7695C83.6581 29.5498 84.4379 28.803 84.4379 27.5207C84.4379 26.0725 83.433 25.08 81.9081 25.08H78.6612C78.585 25.08 78.5231 25.1425 78.5231 25.2195V32.7302C78.5231 32.8073 78.585 32.87 78.6612 32.87H79.7367C79.8129 32.87 79.875 32.8073 79.875 32.7302V30.1012C79.875 30.0242 79.9368 29.9617 80.013 29.9617H81.1478C81.1967 29.9617 81.2418 29.9877 81.2668 30.0301L82.8847 32.8013C82.9094 32.8437 82.9547 32.87 83.0037 32.87H84.2466C84.355 32.87 84.4217 32.75 84.364 32.657C84.0073 32.0808 83.0279 30.4988 82.7057 29.9783C82.6544 29.8961 82.7023 29.7932 82.7956 29.7695ZM95.0541 26.2827H98.7103C98.7852 26.2827 98.846 26.2213 98.846 26.1452V25.2173C98.846 25.1415 98.7852 25.0798 98.7103 25.0798H93.7023C93.6273 25.0798 93.5663 25.1415 93.5663 25.2173V32.7323C93.5663 32.8084 93.6273 32.8698 93.7023 32.8698H98.7103C98.7852 32.8698 98.846 32.8084 98.846 32.7323V31.8044C98.846 31.7286 98.7852 31.6672 98.7103 31.6672H95.0541C94.9789 31.6672 94.9182 31.6055 94.9182 31.5297V29.6319C94.9182 29.5558 94.9789 29.4944 95.0541 29.4944H98.6294C98.7046 29.4944 98.7654 29.4329 98.7654 29.3569V28.4289C98.7654 28.3532 98.7046 28.2915 98.6294 28.2915H95.0541C94.9789 28.2915 94.9182 28.23 94.9182 28.154V26.4202C94.9182 26.3442 94.9789 26.2827 95.0541 26.2827ZM92.1871 31.1474L91.3035 30.6842C91.2466 30.6543 91.1747 30.6761 91.1402 30.7308C90.7665 31.3232 90.0771 31.7629 89.3279 31.7629C87.857 31.7629 86.765 30.5717 86.765 28.9481C86.765 27.3015 87.857 26.1335 89.3279 26.1335C90.0765 26.1335 90.7657 26.5623 91.1397 27.1627C91.1745 27.2187 91.2471 27.2403 91.3048 27.2088L92.1817 26.7258C92.2484 26.6891 92.2719 26.6047 92.2309 26.5399C91.6762 25.6572 90.7575 24.9188 89.3279 24.9188C87.1325 24.9188 85.4276 26.5425 85.4276 28.9481C85.4276 31.3424 87.1325 32.9776 89.3279 32.9776C90.7557 32.9776 91.6641 32.2196 92.2376 31.3364C92.2811 31.2695 92.2572 31.1841 92.1871 31.1474ZM69.1571 25.0799H67.466C67.3908 25.0799 67.3234 25.1262 67.2958 25.197L65.2506 30.5422L63.1939 25.1965C63.1663 25.1262 63.0989 25.0799 63.0236 25.0799H61.3323C61.2824 25.0799 61.2417 25.121 61.2417 25.1715V32.7782C61.2417 32.8288 61.2824 32.8699 61.3323 32.8699H62.5029C62.5529 32.8699 62.5935 32.8288 62.5935 32.7782V26.8551L64.9457 32.8285C64.9555 32.8535 64.9794 32.8699 65.006 32.8699H65.4953C65.5218 32.8699 65.5458 32.8535 65.5556 32.8285L67.8961 26.8551V32.7782C67.8961 32.8288 67.9366 32.8699 67.9868 32.8699H69.1571C69.2073 32.8699 69.2477 32.8288 69.2477 32.7782V25.1715C69.2477 25.121 69.2073 25.0799 69.1571 25.0799Z" fill="#9CA3AF"></path></g><defs><clipPath id="clip0_1595_83072"><rect width="94.3787" height="21.4497" fill="white" transform="translate(4.46753 14.5859)"></rect></clipPath></defs></svg>