<svg xmlns="http://www.w3.org/2000/svg" width="103" height="52" viewBox="0 0 103 52" fill="none"><path fill-rule="evenodd" clip-rule="evenodd" d="M18.4145 19.3415V21.8451C17.2239 21.4287 15.9201 21.1855 14.8806 21.1855C13.5975 21.1855 12.8835 21.5765 12.8835 22.2789C12.8835 22.7271 13.196 23.0242 14.0925 23.4272L16.5036 24.509C18.4323 25.3756 19.4044 26.6399 19.4044 28.2827C19.4044 30.818 17.2099 32.4174 13.7314 32.4174C12.4627 32.4174 10.9952 32.2359 9.44061 31.8845V29.2966C10.9818 29.716 12.3934 29.9398 13.4916 29.9398C14.9297 29.9398 15.7001 29.5393 15.7001 28.7925C15.7001 28.3438 15.3991 28.014 14.7102 27.7064L12.0713 26.5311C10.1151 25.6587 9.2124 24.4835 9.2124 22.808C9.2124 20.407 11.3275 18.876 14.6457 18.876C15.8074 18.876 17.2374 19.0527 18.4145 19.3415ZM21.2821 19.1384H25.1814V32.155H21.2821V19.1384ZM37.8597 19.1384V21.523H31.9729V24.4589H37.1153V26.6159H31.9729V29.6596H37.9357V32.155H28.1838V19.1384H37.8597ZM56.2812 19.1384V32.155H52.5085V23.5875L48.8129 32.2566H46.4277L42.7571 23.5875V32.155H40.1519V19.1384H44.9135L48.2799 27.0559L51.6289 19.1384H56.2812ZM68.9696 19.1384V21.523H63.0741V24.4589H68.2152V26.6159H63.0741V29.6596H69.036V32.155H59.2754V19.1384H68.9696ZM82.7042 19.1384V32.155H78.5429L73.8574 23.8066V32.155H71.2517V19.1384H75.5227L80.1077 27.3766V19.1384H82.7042ZM94.0204 19.3415V21.8451C92.8384 21.4315 91.5264 21.1855 90.5062 21.1855C89.2029 21.1855 88.4894 21.5702 88.4894 22.2751C88.4894 22.7344 88.7807 23.0088 89.7079 23.4277L92.1085 24.5095C94.0512 25.3853 95.0112 26.6385 95.0112 28.3005C95.0112 30.8224 92.8148 32.4184 89.344 32.4184C88.0734 32.4184 86.6001 32.2359 85.0474 31.8854V29.2976C86.5867 29.716 87.9954 29.9408 89.0864 29.9408C90.5149 29.9408 91.3064 29.5402 91.3064 28.8171C91.3064 28.3385 91.0291 28.0299 90.3069 27.7073L87.6786 26.5321C85.7104 25.653 84.8183 24.4912 84.8183 22.8095C84.8183 20.4099 86.9343 18.8779 90.2448 18.8779C91.4099 18.8765 92.8456 19.0527 94.0204 19.3415Z" fill="#9CA3AF"></path></svg>