<svg class="ugb-custom-icon" xmlns="http://www.w3.org/2000/svg" width="32" height="32" viewBox="0 0 24 24" fill="none" aria-hidden="true">
    <path d="M7.84723 9.73428C7.95462 9.84154 7.9868 10.0029 7.92876 10.1432C7.87072 10.2834 7.7339 10.3749 7.58212 10.3749C7.43034 10.3749 7.29351 10.2834 7.23547 10.1432C7.17743 10.0029 7.20962 9.84154 7.31701 9.73428V9.73428C7.46348 9.58799 7.70076 9.58799 7.84723 9.73428" stroke="#7760F9" stroke-width="1.5" stroke-linecap="round" stroke-linejoin="round"></path>
    <path d="M12.2651 9.73428C12.3725 9.84154 12.4046 10.0029 12.3466 10.1432C12.2886 10.2834 12.1517 10.3749 12 10.3749C11.8482 10.3749 11.7114 10.2834 11.6533 10.1432C11.5953 10.0029 11.6275 9.84154 11.7349 9.73428V9.73428C11.8813 9.58799 12.1186 9.58799 12.2651 9.73428" stroke="#7760F9" stroke-width="1.5" stroke-linecap="round" stroke-linejoin="round"></path>
    <path fill-rule="evenodd" clip-rule="evenodd" d="M20.9968 6.15975V13.8099C20.997 14.6526 20.6625 15.4609 20.0668 16.0569C19.4712 16.653 18.6631 16.988 17.8204 16.9883H12.9944L7.99234 20.9899V16.9883H6.16658C4.41179 16.9883 2.98926 15.5657 2.98926 13.8109V13.8109V6.15975C2.98926 4.40496 4.41179 2.98242 6.16658 2.98242H17.8194C19.5742 2.98242 20.9968 4.40496 20.9968 6.15975V6.15975Z" stroke="#7760F9" stroke-width="1.5" stroke-linecap="round" stroke-linejoin="round"></path>
    <path d="M17.0021 13.0005H15.0012" stroke="#7760F9" stroke-width="1.5" stroke-linecap="round" stroke-linejoin="round"></path>
</svg>