<svg width="309" height="32" viewBox="0 0 309 32" fill="none" xmlns="http://www.w3.org/2000/svg">
<rect x="0.5" y="0.5" width="307.823" height="31" rx="15.5" stroke="#D1D5DB"/>
<path d="M23.9964 17H24.9564V18.26H23.9964V20H22.6644V18.26H18.4524V17L21.1884 11.6H22.6644L19.9404 17H22.6644V14.984H23.9964V17ZM26.3211 19.424C26.3211 19.2 26.3811 19.028 26.5011 18.908C26.6211 18.78 26.7931 18.716 27.0171 18.716C27.2411 18.716 27.4131 18.78 27.5331 18.908C27.6531 19.028 27.7131 19.2 27.7131 19.424C27.7131 19.656 27.6531 19.836 27.5331 19.964C27.4131 20.084 27.2411 20.144 27.0171 20.144C26.7931 20.144 26.6211 20.084 26.5011 19.964C26.3811 19.836 26.3211 19.656 26.3211 19.424ZM29.2739 12.86V11.6H35.3819V12.572L32.0579 20H30.6059L33.7859 12.86H29.2739ZM44.2567 20.156C43.4727 20.156 42.7487 19.964 42.0847 19.58C41.4207 19.188 40.8927 18.66 40.5007 17.996C40.1167 17.332 39.9247 16.608 39.9247 15.824C39.9247 15.04 40.1167 14.316 40.5007 13.652C40.8927 12.988 41.4207 12.464 42.0847 12.08C42.7487 11.688 43.4727 11.492 44.2567 11.492C45.0407 11.492 45.7647 11.688 46.4287 12.08C47.0927 12.464 47.6167 12.988 48.0007 13.652C48.3927 14.316 48.5887 15.04 48.5887 15.824C48.5887 16.608 48.3927 17.332 48.0007 17.996C47.6167 18.66 47.0927 19.188 46.4287 19.58C45.7647 19.964 45.0407 20.156 44.2567 20.156ZM44.2567 18.824C44.8007 18.824 45.3007 18.692 45.7567 18.428C46.2207 18.156 46.5847 17.792 46.8487 17.336C47.1207 16.872 47.2567 16.368 47.2567 15.824C47.2567 15.28 47.1207 14.78 46.8487 14.324C46.5847 13.86 46.2207 13.496 45.7567 13.232C45.3007 12.96 44.8007 12.824 44.2567 12.824C43.7127 12.824 43.2087 12.96 42.7447 13.232C42.2887 13.496 41.9247 13.86 41.6527 14.324C41.3887 14.78 41.2567 15.28 41.2567 15.824C41.2567 16.368 41.3887 16.872 41.6527 17.336C41.9247 17.792 42.2887 18.156 42.7447 18.428C43.2087 18.692 43.7127 18.824 44.2567 18.824ZM54.8914 11.6H56.2234V17.156C56.2234 17.74 56.0874 18.26 55.8154 18.716C55.5434 19.172 55.1634 19.528 54.6754 19.784C54.1954 20.032 53.6514 20.156 53.0434 20.156C52.4354 20.156 51.8914 20.032 51.4114 19.784C50.9314 19.528 50.5554 19.172 50.2834 18.716C50.0194 18.26 49.8874 17.74 49.8874 17.156V11.6H51.2194V17.156C51.2194 17.66 51.3874 18.064 51.7234 18.368C52.0674 18.672 52.5074 18.824 53.0434 18.824C53.6114 18.824 54.0594 18.676 54.3874 18.38C54.7234 18.076 54.8914 17.668 54.8914 17.156V11.6ZM63.499 11.6V12.86H61.099V20H59.767V12.86H57.379V11.6H63.499ZM72.0878 20.156C71.3038 20.156 70.5798 19.964 69.9158 19.58C69.2518 19.188 68.7238 18.66 68.3318 17.996C67.9478 17.332 67.7558 16.608 67.7558 15.824C67.7558 15.04 67.9478 14.316 68.3318 13.652C68.7238 12.988 69.2518 12.464 69.9158 12.08C70.5798 11.688 71.3038 11.492 72.0878 11.492C72.8718 11.492 73.5958 11.688 74.2598 12.08C74.9238 12.464 75.4478 12.988 75.8318 13.652C76.2238 14.316 76.4198 15.04 76.4198 15.824C76.4198 16.608 76.2238 17.332 75.8318 17.996C75.4478 18.66 74.9238 19.188 74.2598 19.58C73.5958 19.964 72.8718 20.156 72.0878 20.156ZM72.0878 18.824C72.6318 18.824 73.1318 18.692 73.5878 18.428C74.0518 18.156 74.4158 17.792 74.6798 17.336C74.9518 16.872 75.0878 16.368 75.0878 15.824C75.0878 15.28 74.9518 14.78 74.6798 14.324C74.4158 13.86 74.0518 13.496 73.5878 13.232C73.1318 12.96 72.6318 12.824 72.0878 12.824C71.5438 12.824 71.0398 12.96 70.5758 13.232C70.1198 13.496 69.7558 13.86 69.4838 14.324C69.2198 14.78 69.0878 15.28 69.0878 15.824C69.0878 16.368 69.2198 16.872 69.4838 17.336C69.7558 17.792 70.1198 18.156 70.5758 18.428C71.0398 18.692 71.5438 18.824 72.0878 18.824ZM82.6402 11.6V12.86H79.0642V15.224H82.4962V16.484H79.0642V20H77.7322V11.6H82.6402ZM90.2869 14.84C91.2069 14.84 91.9309 15.06 92.4589 15.5C92.9949 15.94 93.2629 16.536 93.2629 17.288C93.2629 18.168 92.9949 18.864 92.4589 19.376C91.9309 19.88 91.2069 20.132 90.2869 20.132C89.4149 20.132 88.7069 19.936 88.1629 19.544C87.6189 19.144 87.3109 18.6 87.2389 17.912L88.5109 17.768C88.6069 18.112 88.8109 18.384 89.1229 18.584C89.4429 18.776 89.8309 18.872 90.2869 18.872C90.8229 18.872 91.2429 18.732 91.5469 18.452C91.8589 18.164 92.0149 17.776 92.0149 17.288C92.0149 16.888 91.8589 16.572 91.5469 16.34C91.2429 16.1 90.8229 15.98 90.2869 15.98H88.5229V15.968L87.6109 15.98L88.1749 11.6H92.9749V12.86H89.2789L89.0269 14.84H90.2869Z" fill="white"/>
<path d="M123.836 10.656C124.093 10.3558 124.258 10.0418 124.258 9.70954C124.258 9.15268 123.797 8.79977 123.233 8.79977C122.709 8.79977 122.273 9.13893 122.191 9.70954L121.423 9.52392C121.57 8.58894 122.333 8 123.229 8C124.235 8 125.035 8.68519 125.035 9.70266C125.035 10.2595 124.778 10.766 124.407 11.1945C123.664 12.0584 123.646 12.0905 122.844 13.0369H125.053V13.8298H121.492V13.4907L123.836 10.656Z" fill="white"/>
<path d="M121.506 17.7165L121.512 14.8222H127.791C127.856 15.2256 127.888 15.6426 127.888 16.0574C127.888 20.4367 124.322 24.0001 119.945 24.0001C115.566 24.007 112 20.4435 112 16.0643C112 11.685 115.566 8.12158 119.943 8.12158V10.9242C117.108 10.9242 114.803 13.2296 114.803 16.0643C114.803 18.899 117.108 21.2044 119.943 21.2044C122.195 21.2044 124.123 19.7446 124.815 17.7165" fill="white"/>
<path d="M155.912 14.1147H149.488L147.503 8L145.512 14.1147L139.088 14.1085L144.291 17.8915L142.3 24L147.503 20.2233L152.7 24L150.716 17.8915L155.912 14.1147Z" fill="white"/>
<path d="M151.162 19.2745L150.716 17.8916L147.503 20.2234L151.162 19.2745Z" fill="#9CA3AF"/>
<path d="M167.113 13.8763H173.749H177.779V9.88232L167.113 13.8763Z" fill="#E5E7EB"/>
<path d="M177.779 9.88235V24L182.823 8L177.779 9.88235Z" fill="white"/>
<path d="M177.779 13.8765H173.749L177.779 23.9881V13.8765Z" fill="#9CA3AF"/>
<path d="M167.113 13.8765L174.787 16.4707L173.749 13.8765H167.113Z" fill="#D1D5DB"/>
<path d="M205.155 11.6V18.74H207.519V20H201.279V18.74H203.823V13.004L202.371 13.784L201.687 12.74L203.823 11.612V11.6H205.155ZM211.776 20.156C211.088 20.156 210.492 19.976 209.988 19.616C209.484 19.248 209.1 18.736 208.836 18.08C208.572 17.424 208.44 16.664 208.44 15.8C208.44 14.936 208.572 14.176 208.836 13.52C209.1 12.864 209.484 12.356 209.988 11.996C210.492 11.628 211.088 11.444 211.776 11.444C212.464 11.444 213.056 11.628 213.552 11.996C214.056 12.356 214.44 12.864 214.704 13.52C214.976 14.176 215.112 14.936 215.112 15.8C215.112 16.664 214.976 17.424 214.704 18.08C214.44 18.736 214.056 19.248 213.552 19.616C213.056 19.976 212.464 20.156 211.776 20.156ZM211.776 18.812C212.392 18.812 212.88 18.56 213.24 18.056C213.6 17.544 213.78 16.792 213.78 15.8C213.78 14.8 213.6 14.048 213.24 13.544C212.888 13.032 212.4 12.776 211.776 12.776C211.152 12.776 210.66 13.032 210.3 13.544C209.948 14.048 209.772 14.8 209.772 15.8C209.772 16.792 209.948 17.544 210.3 18.056C210.66 18.56 211.152 18.812 211.776 18.812ZM219.152 20.156C218.464 20.156 217.868 19.976 217.364 19.616C216.86 19.248 216.476 18.736 216.212 18.08C215.948 17.424 215.816 16.664 215.816 15.8C215.816 14.936 215.948 14.176 216.212 13.52C216.476 12.864 216.86 12.356 217.364 11.996C217.868 11.628 218.464 11.444 219.152 11.444C219.84 11.444 220.432 11.628 220.928 11.996C221.432 12.356 221.816 12.864 222.08 13.52C222.352 14.176 222.488 14.936 222.488 15.8C222.488 16.664 222.352 17.424 222.08 18.08C221.816 18.736 221.432 19.248 220.928 19.616C220.432 19.976 219.84 20.156 219.152 20.156ZM219.152 18.812C219.768 18.812 220.256 18.56 220.616 18.056C220.976 17.544 221.156 16.792 221.156 15.8C221.156 14.8 220.976 14.048 220.616 13.544C220.264 13.032 219.776 12.776 219.152 12.776C218.528 12.776 218.036 13.032 217.676 13.544C217.324 14.048 217.148 14.8 217.148 15.8C217.148 16.792 217.324 17.544 217.676 18.056C218.036 18.56 218.528 18.812 219.152 18.812ZM226.529 20.156C225.841 20.156 225.245 19.976 224.741 19.616C224.237 19.248 223.853 18.736 223.589 18.08C223.325 17.424 223.193 16.664 223.193 15.8C223.193 14.936 223.325 14.176 223.589 13.52C223.853 12.864 224.237 12.356 224.741 11.996C225.245 11.628 225.841 11.444 226.529 11.444C227.217 11.444 227.809 11.628 228.305 11.996C228.809 12.356 229.193 12.864 229.457 13.52C229.729 14.176 229.865 14.936 229.865 15.8C229.865 16.664 229.729 17.424 229.457 18.08C229.193 18.736 228.809 19.248 228.305 19.616C227.809 19.976 227.217 20.156 226.529 20.156ZM226.529 18.812C227.145 18.812 227.633 18.56 227.993 18.056C228.353 17.544 228.533 16.792 228.533 15.8C228.533 14.8 228.353 14.048 227.993 13.544C227.641 13.032 227.153 12.776 226.529 12.776C225.905 12.776 225.413 13.032 225.053 13.544C224.701 14.048 224.525 14.8 224.525 15.8C224.525 16.792 224.701 17.544 225.053 18.056C225.413 18.56 225.905 18.812 226.529 18.812ZM236.006 16.352H233.786V18.848H232.898V16.352H230.678V15.548H232.898V13.136H233.786V15.548H236.006V16.352ZM245.699 20L243.995 16.988H242.147V20H240.815V11.6H244.151C244.639 11.6 245.087 11.72 245.495 11.96C245.911 12.2 246.239 12.528 246.479 12.944C246.727 13.352 246.851 13.8 246.851 14.288C246.851 14.808 246.715 15.284 246.443 15.716C246.171 16.148 245.811 16.476 245.363 16.7L247.223 20H245.699ZM242.147 12.872V15.716H244.151C244.543 15.716 244.879 15.576 245.159 15.296C245.439 15.016 245.579 14.68 245.579 14.288C245.579 13.896 245.439 13.564 245.159 13.292C244.879 13.012 244.543 12.872 244.151 12.872H242.147ZM249.63 16.376V18.74H253.266V20H248.298V11.6H253.206V12.86H249.63V15.116H252.906V16.376H249.63ZM257.782 18.152L260.098 11.6H261.514L258.526 20H257.038L254.062 11.6H255.466L257.782 18.152ZM262.735 20V11.6H264.067V20H262.735ZM267.435 16.376V18.74H271.071V20H266.103V11.6H271.011V12.86H267.435V15.116H270.711V16.376H267.435ZM280.244 17.936L281.96 11.6H283.328L281 20H279.548L277.688 13.856L275.828 20H274.376L272.048 11.6H273.416L275.132 17.936L276.992 11.6H278.384L280.244 17.936ZM287.484 20.156C286.676 20.156 285.992 19.972 285.432 19.604C284.88 19.236 284.492 18.74 284.268 18.116L285.408 17.456C285.568 17.896 285.824 18.24 286.176 18.488C286.528 18.728 286.976 18.848 287.52 18.848C288.032 18.848 288.42 18.728 288.684 18.488C288.956 18.24 289.092 17.956 289.092 17.636C289.092 17.324 288.944 17.072 288.648 16.88C288.352 16.688 287.864 16.492 287.184 16.292C286.64 16.124 286.188 15.952 285.828 15.776C285.476 15.6 285.184 15.356 284.952 15.044C284.728 14.732 284.616 14.336 284.616 13.856C284.616 13.368 284.736 12.944 284.976 12.584C285.224 12.216 285.552 11.936 285.96 11.744C286.368 11.544 286.816 11.444 287.304 11.444C287.976 11.444 288.56 11.608 289.056 11.936C289.552 12.264 289.928 12.712 290.184 13.28L289.044 13.928C288.708 13.152 288.128 12.764 287.304 12.764C286.896 12.764 286.568 12.872 286.32 13.088C286.072 13.296 285.948 13.548 285.948 13.844C285.948 14.068 286.008 14.252 286.128 14.396C286.248 14.532 286.424 14.656 286.656 14.768C286.896 14.872 287.24 14.996 287.688 15.14C288.264 15.316 288.74 15.5 289.116 15.692C289.492 15.876 289.804 16.132 290.052 16.46C290.3 16.788 290.424 17.204 290.424 17.708C290.424 18.196 290.296 18.628 290.04 19.004C289.792 19.372 289.444 19.656 288.996 19.856C288.556 20.056 288.052 20.156 287.484 20.156Z" fill="white"/>
</svg>
