<svg xmlns="http://www.w3.org/2000/svg" width="90" height="51" viewBox="0 0 90 51" fill="none">
    <path opacity="0.5" d="M67.9783 29.0907C67.4753 29.4407 66.9026 29.6779 66.2994 29.7859C65.6962 29.8939 65.0768 29.8701 64.4837 29.7163C63.8905 29.5624 63.3377 29.2821 62.863 28.8946C62.3884 28.507 62.0031 28.0214 61.7337 27.471C60.5516 25.2815 60.5755 21.4532 64.3931 17.3992C65.6908 16.0047 67.1722 14.7933 68.7966 13.7985C67.4648 10.526 65.3472 7.63214 62.631 5.37267C58.4257 2.00188 53.7189 0.906137 49.1666 2.2544C42.7069 4.1204 37.3815 9.74904 33.6195 16.2992C35.3168 17.3554 36.7342 18.8054 37.7515 20.5262C41.4841 26.6945 44.6212 36.4264 41.0328 43.6153C39.7795 46.1596 37.9292 47.6352 35.8015 47.8392C34.7152 47.9227 33.6253 47.7322 32.6318 47.285C31.6383 46.8378 30.7729 46.1483 30.1152 45.2797C26.8013 41.3612 25.9084 34.1043 27.857 26.8413C28.7949 23.364 30.1212 20.0034 31.8108 16.8229C30.1089 16.1459 28.2484 15.9719 26.4505 16.3215C17.5995 17.8312 6.47174 29.9529 2.16 50.1876C2.13021 50.3489 2.03759 50.4917 1.90251 50.5846C1.76743 50.6776 1.60096 50.713 1.43972 50.6833C1.27848 50.6535 1.13569 50.5608 1.04273 50.4258C0.949784 50.2907 0.914297 50.1242 0.944084 49.963C2.95575 40.4158 6.58301 32.0051 11.5377 25.5808C16.0333 19.725 21.2641 15.9654 26.1932 15.169C28.2641 14.775 30.4045 14.9835 32.3604 15.7698C36.5585 8.32026 42.3917 2.93881 48.6946 1.1249C53.6068 -0.275266 58.7663 0.902175 63.253 4.4793C66.125 6.82241 68.3594 9.85235 69.7491 13.2885C78.455 8.66441 88.5652 10.6244 88.6697 10.6767C88.8275 10.7146 88.9658 10.8093 89.0583 10.9427C89.1508 11.0761 89.1909 11.2388 89.1711 11.3999C89.1332 11.5577 89.0385 11.696 88.9051 11.7885C88.7718 11.881 88.609 11.9211 88.448 11.9013C88.2941 11.8751 78.5321 9.94446 70.2036 14.5109C71.1079 17.1472 71.3796 19.9591 70.997 22.7197C70.6453 26.3765 69.2445 28.2153 67.9783 29.0907ZM68.4322 15.467C67.2863 16.2758 66.2211 17.1933 65.2515 18.2068C61.9132 21.7824 61.8028 25.0011 62.7677 26.7696C63.0403 27.3674 63.4972 27.8621 64.0715 28.1812C64.6457 28.5004 65.3071 28.6272 65.9587 28.5431C67.9182 28.1822 69.3658 25.8441 69.8596 22.2949C70.1969 19.8083 69.9518 17.2774 69.1439 14.9017C68.9403 15.129 68.6997 15.3202 68.4322 15.467ZM33.012 17.3232C31.3673 20.4434 30.0566 23.7285 29.1019 27.124C26.8243 35.5215 28.705 41.7055 31.0505 44.4273C31.5787 45.1289 32.2724 45.6888 33.0698 46.0567C33.8672 46.4247 34.7434 46.5893 35.6199 46.5359C37.3151 46.3691 38.8488 45.1051 39.8608 42.9989C41.9197 38.8329 42.3541 30.5642 36.6364 21.1578C35.7507 19.6094 34.5081 18.2947 33.012 17.3232Z" fill="white"/>
</svg>