<svg xmlns="http://www.w3.org/2000/svg" width="78" height="38" viewBox="0 0 78 38" fill="none">
    <path opacity="0.5" d="M67.7046 24.8813C62.1459 31.6134 55.4334 36.1601 48.5973 37.4223C42.4508 38.5807 36.263 36.5139 31.1682 31.6076C27.9323 28.4155 25.5508 24.4617 24.2428 20.1102C13.118 24.7643 1.01034 21.1754 0.857221 21.1276C0.760602 21.0978 0.670787 21.0492 0.592904 20.9847C0.515021 20.9202 0.450591 20.8409 0.403302 20.7516C0.307796 20.5711 0.287885 20.3601 0.347952 20.165C0.408019 19.97 0.543145 19.8069 0.723598 19.7116C0.904051 19.6163 1.11506 19.5966 1.31019 19.6569C1.45381 19.7055 13.1965 23.1854 23.8874 18.6539C23.0772 15.3312 23.0579 11.8656 23.8312 8.53577C25.5323 1.39855 29.196 0.332099 30.6992 0.218146C31.8298 0.150318 32.9529 0.445827 33.9042 1.06149C34.8556 1.67715 35.5854 2.58068 35.9869 3.64004C37.2026 6.47112 36.6853 11.1148 31.5844 15.6283C29.8231 17.1954 27.8532 18.511 25.7307 19.5377C26.956 23.7115 29.2231 27.506 32.3186 30.5641C37.1122 35.178 42.6676 37.0461 48.3956 35.9706C59.3382 33.9113 70.0759 22.8787 75.7639 7.86024C75.7994 7.76555 75.8532 7.6788 75.9223 7.60497C75.9914 7.53114 76.0744 7.47168 76.1665 7.43C76.2587 7.38832 76.3581 7.36523 76.4593 7.36206C76.5604 7.3589 76.6612 7.37571 76.7558 7.41154C76.946 7.48483 77.0999 7.62999 77.184 7.81565C77.2682 8.0013 77.276 8.21254 77.2056 8.40371C74.9569 14.3774 71.7477 19.9431 67.7046 24.8813ZM25.2737 17.9713C27.1732 17.0317 28.9395 15.8442 30.5264 14.44C35.0265 10.5057 35.5594 6.5744 34.563 4.23035C34.2858 3.47056 33.7734 2.81881 33.1003 2.36997C32.4272 1.92114 31.6287 1.69867 30.8208 1.73494C28.4017 1.94063 26.3491 4.61724 25.3221 8.89252C24.6267 11.8862 24.6209 14.9994 25.3049 17.9971L25.2737 17.9713Z" fill="white"/>
</svg>